<svg xmlns="http://www.w3.org/2000/svg" xmlns:xlink="http://www.w3.org/1999/xlink" version="1.1" x="0px" y="0px" viewBox="0 0 100 125" style="enable-background:new 0 0 100 100;" xml:space="preserve"><path d="M49.9511719,90c13.6894531,0,25.2548828-18.3173828,25.2548828-39.9995117  c0-9.534668-3.0771484-19.6362305-8.4423828-27.7143555c-5.109375-7.6928711-11.3945312-12.2856445-16.8125-12.2856445  c-11.0273438,0-25.2539062,19.3974609-25.2539062,40C24.6972656,71.6826172,36.2617188,90,49.9511719,90z M62.6586914,81.4150391  H37.2439575c-1.3215942-1.4716187-2.5541992-3.1561279-3.6781616-5.0170898h32.7712402  C65.2130127,78.2589111,63.9803467,79.9434204,62.6586914,81.4150391z M39.2438354,83.4150391h21.414856  C57.4125977,86.3206787,53.7544556,88,49.9511719,88S42.4898071,86.3206787,39.2438354,83.4150391z M66.1142578,25H33.8527832  c1.1256714-1.8346558,2.3324585-3.5158691,3.585022-5.0175781h25.1318359  c0.8685913,1.0521851,1.7163086,2.1879883,2.5280151,3.4101562C65.4474487,23.9191895,65.7849731,24.4562988,66.1142578,25z   M49.9511719,12.0004883c3.3145142,0,7.194519,2.2017822,10.8358765,5.9819336H39.2352295  C42.8914795,14.2133789,46.7573853,12.0004883,49.9511719,12.0004883z M32.6929321,27h34.5604248  c3.80896,7.0443726,5.9526978,15.2178345,5.9526978,23.0004883c0,9.0993042-2.2004395,17.6898193-5.743103,24.3974609H32.4399414  c-3.5424805-6.7076416-5.7426758-15.2981567-5.7426758-24.3974609C26.6972656,41.4372559,29.1668091,33.4352417,32.6929321,27z"/><path d="M43.0830078,42.7407227h13.8339844c1.7919922,0,3.25-1.4580078,3.25-3.25s-1.4580078-3.25-3.25-3.25H43.0830078  c-1.7919922,0-3.25,1.4580078-3.25,3.25S41.2910156,42.7407227,43.0830078,42.7407227z M43.0830078,38.2407227h13.8339844  c0.6894531,0,1.25,0.5605469,1.25,1.25s-0.5605469,1.25-1.25,1.25H43.0830078c-0.6894531,0-1.25-0.5605469-1.25-1.25  S42.3935547,38.2407227,43.0830078,38.2407227z"/><path d="M43.0830078,53.9487305h13.8339844c1.7919922,0,3.25-1.4580078,3.25-3.25s-1.4580078-3.25-3.25-3.25H43.0830078  c-1.7919922,0-3.25,1.4580078-3.25,3.25S41.2910156,53.9487305,43.0830078,53.9487305z M43.0830078,49.4487305h13.8339844  c0.6894531,0,1.25,0.5605469,1.25,1.25s-0.5605469,1.25-1.25,1.25H43.0830078c-0.6894531,0-1.25-0.5605469-1.25-1.25  S42.3935547,49.4487305,43.0830078,49.4487305z"/><path d="M56.9169922,58.6572266H43.0830078c-1.7919922,0-3.25,1.4580078-3.25,3.25s1.4580078,3.25,3.25,3.25h13.8339844  c1.7919922,0,3.25-1.4580078,3.25-3.25S58.7089844,58.6572266,56.9169922,58.6572266z M56.9169922,63.1572266H43.0830078  c-0.6894531,0-1.25-0.5605469-1.25-1.25s0.5605469-1.25,1.25-1.25h13.8339844c0.6894531,0,1.25,0.5605469,1.25,1.25  S57.6064453,63.1572266,56.9169922,63.1572266z"/></svg>