<svg xmlns="http://www.w3.org/2000/svg" xmlns:xlink="http://www.w3.org/1999/xlink" version="1.1" x="0px" y="0px" viewBox="0 0 100 125" style="enable-background:new 0 0 100 100;" xml:space="preserve"><path d="M82.8613281,51.5566406c4.5981445-4.5976562,7.1303711-10.7109375,7.1303711-17.2138672  c0-6.5019531-2.5322266-12.6152344-7.1303711-17.2128906C78.2636719,12.5322266,72.1503906,10,65.6479492,10  s-12.6157227,2.5322266-17.2133789,7.1298828c-4.5981445,4.5976562-7.1298828,10.7109375-7.1298828,17.2128906  c0,6.5029297,2.5317383,12.6162109,7.1298828,17.2138672C53.0322266,56.1552734,59.1455078,58.6875,65.6479492,58.6875  S78.2636719,56.1552734,82.8613281,51.5566406z M43.3809204,35.9082031c0.2045288-0.0165405,0.4096069-0.024292,0.6137085-0.0458984  c0.5493164-0.0566406,0.9482422-0.5488281,0.8911133-1.0976562s-0.5439453-0.9511719-1.0981445-0.890625  c-0.1535645,0.015686-0.3079224,0.0212402-0.461731,0.0342407c0.1107178-5.8040771,2.4058228-11.2478638,6.5227661-15.3643188  c4.1166382-4.1161499,9.5595093-6.4116821,15.3635864-6.5227051c-0.0131836,0.1536255-0.0183105,0.3077393-0.0344849,0.4611816  c-0.0576172,0.5488281,0.3408203,1.0410156,0.8901367,1.0986328c0.0356445,0.0039062,0.0708008,0.0058594,0.1054688,0.0058594  c0.5053711,0,0.9394531-0.3818359,0.9936523-0.8955078c0.0214233-0.2044067,0.0293579-0.4100952,0.0459595-0.6151733  c5.3773193,0.3706055,10.3861084,2.6199341,14.234314,6.4677124c3.8483276,3.8487549,6.0977173,8.8571777,6.4682007,14.234314  c-0.2047119,0.0166016-0.40979,0.0247192-0.6141968,0.0459595c-0.5493164,0.0576172-0.9482422,0.5488281-0.8911133,1.0986328  c0.0537109,0.5136719,0.487793,0.8964844,0.9936523,0.8964844c0.0341797,0,0.0693359-0.0019531,0.1044922-0.0048828  c0.1538086-0.0160522,0.3081665-0.0215454,0.4620972-0.0348511c-0.1113281,5.8041382-2.4067383,11.2460938-6.5231323,15.3629761  c-4.1166382,4.1171265-9.5595093,6.4126587-15.3635254,6.5236816c0.0131226-0.1539307,0.0183716-0.3084106,0.0344238-0.4621582  c0.0571289-0.5488281-0.3417969-1.0410156-0.8911133-1.0976562c-0.5585938-0.0644531-1.0410156,0.3408203-1.0981445,0.890625  c-0.0212402,0.2041016-0.0291748,0.4094238-0.0457153,0.6141968c-5.3775024-0.3705444-10.3862915-2.6199951-14.2345581-6.468689  C46.0004883,46.2948608,43.7515259,41.2859497,43.3809204,35.9082031z"/><path d="M66.0600586,48.5205078c-0.4316406,1.015625-0.8017578,2.0693359-1.1005859,3.1328125  c-0.1494141,0.5322266,0.1606445,1.0839844,0.6923828,1.2333984c0.090332,0.0253906,0.1816406,0.0371094,0.2709961,0.0371094  c0.4370117,0,0.8383789-0.2880859,0.9624023-0.7294922c0.2753906-0.9814453,0.6171875-1.9541016,1.015625-2.890625  c0.2158203-0.5087891-0.0209961-1.0957031-0.5292969-1.3115234C66.8632812,47.7744141,66.2768555,48.0136719,66.0600586,48.5205078z  "/><path d="M68.4311523,45.9941406c0.1679688,0.1083984,0.355957,0.1601562,0.5415039,0.1601562  c0.328125,0,0.6499023-0.1611328,0.8413086-0.4580078c0.5517578-0.8544922,1.1650391-1.6826172,1.8232422-2.4619141  c0.355957-0.421875,0.3027344-1.0537109-0.1191406-1.4091797c-0.4208984-0.3574219-1.0527344-0.3046875-1.4091797,0.1181641  c-0.7128906,0.8447266-1.3774414,1.7421875-1.9755859,2.6689453C67.8339844,45.0761719,67.9672852,45.6953125,68.4311523,45.9941406  z"/><path d="M80.2011719,36.6826172c0.1303711,0,0.2631836-0.0253906,0.3911133-0.0800781  c0.9384766-0.3994141,1.9106445-0.7412109,2.8901367-1.0166016c0.53125-0.1494141,0.8413086-0.7021484,0.6914062-1.2333984  c-0.1494141-0.53125-0.6987305-0.84375-1.2333984-0.6923828c-1.0610352,0.2988281-2.1147461,0.6699219-3.1313477,1.1025391  c-0.5083008,0.2158203-0.7446289,0.8037109-0.5283203,1.3115234C79.4423828,36.4550781,79.8120117,36.6826172,80.2011719,36.6826172  z"/><path d="M73.8803711,40.5810547c0.2280273,0,0.4570312-0.0771484,0.6450195-0.2363281  c0.7802734-0.6591797,1.6083984-1.2734375,2.4624023-1.8251953c0.4638672-0.2998047,0.5966797-0.9189453,0.296875-1.3828125  c-0.2998047-0.4628906-0.9189453-0.5957031-1.3828125-0.296875c-0.9248047,0.5976562-1.8222656,1.2636719-2.6674805,1.9775391  c-0.421875,0.3564453-0.4746094,0.9873047-0.1181641,1.4091797C73.3139648,40.4609375,73.5961914,40.5810547,73.8803711,40.5810547z  "/><path d="M56.7705078,28.3427734c-0.7797852,0.6591797-1.6079102,1.2734375-2.4619141,1.8251953  c-0.4638672,0.2998047-0.5966797,0.9189453-0.296875,1.3828125c0.1914062,0.2958984,0.5126953,0.4570312,0.8408203,0.4570312  c0.1860352,0,0.3745117-0.0517578,0.5419922-0.1601562c0.925293-0.5986328,1.8227539-1.2636719,2.6669922-1.9775391  c0.421875-0.3564453,0.4746094-0.9873047,0.1181641-1.4091797C57.8232422,28.0380859,57.1928711,27.9853516,56.7705078,28.3427734z"/><path d="M50.7036133,32.0839844c-0.9360352,0.3984375-1.9086914,0.7412109-2.890625,1.0185547  c-0.53125,0.1494141-0.840332,0.7021484-0.6904297,1.2333984c0.1245117,0.4414062,0.5253906,0.7285156,0.9619141,0.7285156  c0.0898438,0,0.1816406-0.0117188,0.2724609-0.0380859c1.0629883-0.2998047,2.1162109-0.6708984,3.1298828-1.1025391  c0.5083008-0.2158203,0.7446289-0.8037109,0.5283203-1.3115234C51.7993164,32.1044922,51.2128906,31.8662109,50.7036133,32.0839844z  "/><path d="M62.8647461,22.6923828c-0.4643555-0.2998047-1.0825195-0.1669922-1.3828125,0.2978516  c-0.5532227,0.8564453-1.1665039,1.6855469-1.8227539,2.4619141c-0.3564453,0.421875-0.3037109,1.0527344,0.1181641,1.4091797  c0.1879883,0.1591797,0.4169922,0.2363281,0.6450195,0.2363281c0.2841797,0,0.5664062-0.1201172,0.7641602-0.3544922  c0.7114258-0.8417969,1.3764648-1.7402344,1.9760742-2.6689453C63.4619141,23.6103516,63.3286133,22.9912109,62.8647461,22.6923828z  "/><path d="M64.3149414,20.7744141c0.3886719,0,0.7587891-0.2275391,0.9204102-0.6083984  c0.4316406-1.0136719,0.8017578-2.0673828,1.1010742-3.1318359c0.1494141-0.5322266-0.1606445-1.0839844-0.6923828-1.2333984  c-0.534668-0.1523438-1.0844727,0.1601562-1.2333984,0.6923828c-0.2758789,0.9824219-0.6176758,1.9550781-1.0151367,2.8896484  c-0.2163086,0.5078125,0.0200195,1.0957031,0.5283203,1.3115234C64.0517578,20.7490234,64.1845703,20.7744141,64.3149414,20.7744141  z"/><path d="M32.2490234,57.5585938l7.2734375-7.2734375c0.390625-0.390625,0.390625-1.0234375,0-1.4140625  s-1.0234375-0.390625-1.4140625,0l-7.2734375,7.2734375c-0.390625,0.390625-0.390625,1.0234375,0,1.4140625  c0.1953125,0.1953125,0.4511719,0.2929688,0.7070312,0.2929688S32.0537109,57.7539062,32.2490234,57.5585938z"/><path d="M43.2543945,69.5644531c0.2558594,0,0.5117188-0.0976562,0.7070312-0.2929688l7.2729492-7.2734375  c0.390625-0.390625,0.390625-1.0234375,0-1.4140625s-1.0234375-0.390625-1.4140625,0l-7.2729492,7.2734375  c-0.390625,0.390625-0.390625,1.0234375,0,1.4140625C42.7426758,69.4667969,42.9985352,69.5644531,43.2543945,69.5644531z"/><path d="M42.9487305,57.1572266c-0.390625-0.390625-1.0234375-0.390625-1.4140625,0l-6.8125,6.8125  c-0.390625,0.390625-0.390625,1.0234375,0,1.4140625c0.1953125,0.1953125,0.4511719,0.2929688,0.7070312,0.2929688  s0.5117188-0.0976562,0.7070312-0.2929688l6.8125-6.8125C43.3393555,58.1806641,43.3393555,57.5478516,42.9487305,57.1572266z"/><path d="M11.730957,78.0771484l15.1191406-15.1191406c0.390625-0.390625,0.390625-1.0234375,0-1.4140625  s-1.0234375-0.390625-1.4140625,0L10.3168945,76.6630859c-0.390625,0.390625-0.390625,1.0234375,0,1.4140625  c0.1953125,0.1953125,0.4511719,0.2929688,0.7070312,0.2929688S11.5356445,78.2724609,11.730957,78.0771484z"/><path d="M22.8417969,90.0263672c0.2558594,0,0.5117188-0.0976562,0.7070312-0.2929688l15.0385742-15.0380859  c0.390625-0.390625,0.390625-1.0234375,0-1.4140625s-1.0234375-0.390625-1.4140625,0L22.1347656,88.3193359  c-0.390625,0.390625-0.390625,1.0234375,0,1.4140625C22.3300781,89.9287109,22.5859375,90.0263672,22.8417969,90.0263672z"/><path d="M11.0532227,90.0527344c0.2558594,0,0.5117188-0.0976562,0.7070312-0.2929688l15.8955078-15.8955078  c0.390625-0.390625,0.390625-1.0234375,0-1.4140625s-1.0234375-0.390625-1.4140625,0L10.3461914,88.3457031  c-0.390625,0.390625-0.390625,1.0234375,0,1.4140625C10.5415039,89.9550781,10.7973633,90.0527344,11.0532227,90.0527344z"/></svg>