<svg xmlns="http://www.w3.org/2000/svg" xmlns:xlink="http://www.w3.org/1999/xlink" version="1.1" x="0px" y="0px" viewBox="0 0 100 125" style="enable-background:new 0 0 100 100;" xml:space="preserve"><style type="text/css">
	.st0{fill:none;stroke:#000000;stroke-width:2;stroke-linecap:round;stroke-linejoin:round;stroke-miterlimit:10;}
	.st1{fill:none;stroke:#000000;stroke-width:2;stroke-linecap:round;stroke-linejoin:round;}
	.st2{fill:none;stroke:#000000;stroke-width:2;stroke-linecap:round;stroke-linejoin:round;stroke-dasharray:4.1329,4.1329;}
</style><path d="M50.2,12.7c-20.2,0-36.6,16.4-36.6,36.6s16.4,36.6,36.6,36.6s36.6-16.4,36.6-36.6S70.4,12.7,50.2,12.7z M51.2,48.2V14.7  c8.5,0.2,16.2,3.5,22,8.8c-6,6.9-9.4,15.6-9.6,24.7H51.2z M49.2,48.2H36.9c-0.2-9.1-3.6-17.9-9.6-24.7c5.9-5.3,13.6-8.6,22-8.8V48.2  z M49.2,50.2v33.5c-8.5-0.2-16.1-3.5-22-8.8c6-6.9,9.4-15.6,9.6-24.7H49.2z M51.2,50.2h12.4c0.2,9.1,3.6,17.9,9.6,24.7  c-5.9,5.3-13.6,8.6-22,8.8V50.2z M74.7,24.9c6,6,9.8,14.3,10,23.4H65.6C65.9,39.6,69.1,31.4,74.7,24.9z M25.8,24.9  c5.7,6.5,8.9,14.7,9.1,23.4H15.7C16,39.1,19.8,30.9,25.8,24.9z M15.7,50.2h19.1c-0.2,8.6-3.4,16.8-9.1,23.4  C19.8,67.6,16,59.3,15.7,50.2z M74.7,73.6c-5.7-6.5-8.9-14.7-9.1-23.4h19.1C84.5,59.3,80.7,67.6,74.7,73.6z"/></svg>