<svg xmlns="http://www.w3.org/2000/svg" xmlns:xlink="http://www.w3.org/1999/xlink" version="1.1" x="0px" y="0px" viewBox="0 0 100 125" enable-background="new 0 0 100 100" xml:space="preserve"><g><path d="M39.765,68.625H13.136l-0.17-0.182c-0.085-0.092-8.607-9.369-8.607-22.378c0-12.781,4.236-26.439,16.127-26.439h9.64   c4.022,0.265,9.176,1.338,11.109,4.952c1.356,2.533,0.856,5.878-1.482,9.945c-2.251,3.911-2.452,9.432-1.485,11.104   c0.112,0.195,0.221,0.284,0.271,0.284c0.289,0,1.316-0.931,2.584-5.182c0.127-0.491,1.369-4.964,4.149-4.964   c0.192,0,0.388,0.023,0.583,0.067c0.546,0.126,1.022,0.577,1.417,1.342c1.896,3.687,2.192,15.568-1.021,23.248   C45.984,61.227,43.411,68.625,39.765,68.625z M13.638,67.486h26.127c2.404,0,4.73-5.389,5.422-7.465   c3.06-7.32,2.83-18.908,1.072-22.326c-0.219-0.428-0.465-0.709-0.659-0.753c-0.11-0.025-0.222-0.039-0.328-0.039   c-1.616,0-2.774,3.06-3.053,4.131c-1.21,4.053-2.411,6.014-3.681,6.014c-0.348,0-0.85-0.147-1.258-0.853   c-1.109-1.917-1.084-7.777,1.484-12.24c2.131-3.703,2.623-6.677,1.466-8.84c-1.776-3.319-7.116-4.151-10.143-4.352l-9.603,0.001   c-11.052,0-14.988,13.07-14.988,25.301C5.497,57.648,12.481,66.156,13.638,67.486z"/></g><g><path d="M40.019,80.463H14.397c-0.873,0-1.584-0.709-1.584-1.584v-7.102c0-0.873,0.711-1.584,1.584-1.584h25.621   c0.873,0,1.584,0.711,1.584,1.584v7.102C41.603,79.754,40.892,80.463,40.019,80.463z M14.397,71.33   c-0.246,0-0.445,0.201-0.445,0.447v7.102c0,0.246,0.199,0.445,0.445,0.445h25.621c0.246,0,0.446-0.199,0.446-0.445v-7.102   c0-0.246-0.2-0.447-0.446-0.447H14.397z"/></g><g><path d="M23.225,22.937c0,0-0.297,0.089-0.821,0.211c-0.13,0.031-0.274,0.064-0.432,0.101c-0.15,0.055-0.313,0.102-0.482,0.157   c-0.17,0.054-0.349,0.111-0.537,0.171c-0.188,0.066-0.383,0.153-0.585,0.232c-0.409,0.145-0.82,0.372-1.255,0.594   c-0.222,0.1-0.428,0.249-0.645,0.382c-0.213,0.142-0.445,0.256-0.647,0.431c-0.21,0.158-0.424,0.318-0.642,0.481   c-0.199,0.185-0.404,0.368-0.613,0.548c-0.219,0.17-0.389,0.4-0.593,0.592l-0.296,0.3l-0.271,0.328   c-0.383,0.418-0.711,0.888-1.053,1.337c-0.307,0.475-0.648,0.921-0.916,1.398c-0.143,0.233-0.283,0.463-0.42,0.688   c-0.129,0.232-0.255,0.459-0.377,0.681c-0.258,0.436-0.467,0.872-0.684,1.264c-0.213,0.395-0.381,0.771-0.556,1.097   c-0.165,0.331-0.31,0.62-0.429,0.857c-0.236,0.479-0.393,0.752-0.393,0.752s0.012-0.309,0.066-0.847   c0.029-0.269,0.057-0.598,0.134-0.964c0.073-0.368,0.128-0.794,0.259-1.239c0.123-0.448,0.234-0.943,0.427-1.443   c0.093-0.252,0.187-0.511,0.284-0.776c0.109-0.26,0.234-0.52,0.355-0.789c0.115-0.271,0.254-0.537,0.408-0.801   c0.148-0.265,0.293-0.539,0.464-0.8c0.345-0.522,0.709-1.045,1.135-1.528l0.313-0.364l0.344-0.339   c0.234-0.22,0.447-0.458,0.707-0.647c0.248-0.2,0.499-0.392,0.748-0.58c0.264-0.168,0.528-0.33,0.789-0.483   c0.254-0.165,0.534-0.278,0.8-0.398c0.271-0.112,0.521-0.247,0.792-0.315c0.266-0.077,0.522-0.153,0.771-0.227   c0.248-0.069,0.502-0.089,0.735-0.132c0.237-0.033,0.456-0.084,0.676-0.094c0.218-0.004,0.427-0.008,0.621-0.012   c0.194-0.002,0.372-0.009,0.536-0.003c0.16,0.02,0.309,0.037,0.443,0.053C22.919,22.878,23.225,22.937,23.225,22.937z"/></g><g><path d="M86.863,68.535h-26.63c-3.645,0-6.22-7.398-6.501-8.242c-3.197-7.641-2.899-19.522-1.005-23.208   c0.394-0.766,0.87-1.218,1.418-1.343c0.194-0.044,0.39-0.067,0.583-0.067c2.779,0,4.021,4.473,4.154,4.982   c1.263,4.232,2.288,5.163,2.577,5.163c0.053,0,0.159-0.089,0.272-0.285c0.967-1.672,0.764-7.192-1.485-11.103   c-2.339-4.066-2.837-7.412-1.482-9.944c1.934-3.614,7.088-4.688,11.07-4.951l9.679-0.001c11.891,0,16.127,13.658,16.127,26.439   c0,13.009-8.522,22.286-8.608,22.38L86.863,68.535z M54.729,36.814c-0.108,0-0.218,0.013-0.329,0.039   c-0.193,0.043-0.438,0.325-0.66,0.753c-1.757,3.419-1.987,15.006,1.059,22.287c0.709,2.115,3.035,7.504,5.436,7.504H86.36   c1.156-1.33,8.142-9.854,8.142-21.421c0-12.231-3.938-25.301-14.988-25.301h-9.641c-2.987,0.199-8.329,1.031-10.105,4.351   c-1.157,2.163-0.663,5.137,1.467,8.84c2.567,4.462,2.593,10.322,1.483,12.24c-0.407,0.705-0.908,0.853-1.258,0.853l0,0   c-1.269,0-2.471-1.961-3.674-5.994C57.479,39.796,56.347,36.814,54.729,36.814z"/></g><g><path d="M85.602,80.373H59.979c-0.873,0-1.584-0.711-1.584-1.584v-7.104c0-0.871,0.711-1.582,1.584-1.582h25.622   c0.873,0,1.584,0.711,1.584,1.582v7.104C87.186,79.662,86.475,80.373,85.602,80.373z M59.979,71.24   c-0.246,0-0.445,0.201-0.445,0.445v7.104c0,0.246,0.199,0.445,0.445,0.445h25.622c0.246,0,0.445-0.199,0.445-0.445v-7.104   c0-0.244-0.199-0.445-0.445-0.445H59.979z"/></g><g><path d="M89.418,35.45c0,0-0.153-0.271-0.391-0.753c-0.116-0.242-0.262-0.536-0.429-0.861c-0.174-0.326-0.341-0.697-0.554-1.093   c-0.216-0.394-0.426-0.827-0.684-1.265c-0.122-0.221-0.248-0.448-0.377-0.68c-0.137-0.225-0.277-0.455-0.421-0.688   c-0.269-0.477-0.607-0.923-0.917-1.398c-0.342-0.449-0.67-0.918-1.053-1.336l-0.272-0.328l-0.296-0.3   c-0.205-0.191-0.376-0.421-0.593-0.591c-0.209-0.18-0.414-0.362-0.614-0.547c-0.217-0.163-0.431-0.323-0.641-0.481   c-0.202-0.174-0.436-0.288-0.647-0.431c-0.217-0.133-0.422-0.283-0.645-0.382c-0.435-0.223-0.846-0.449-1.255-0.594   c-0.401-0.176-0.783-0.301-1.13-0.404c-0.173-0.056-0.336-0.103-0.486-0.157c-0.154-0.037-0.296-0.07-0.423-0.101   c-0.514-0.122-0.818-0.211-0.818-0.211s0.3-0.06,0.842-0.127c0.136-0.016,0.287-0.034,0.451-0.053   c0.164-0.006,0.343,0.002,0.533,0.003c0.192,0.003,0.397,0.006,0.613,0.01c0.218,0.011,0.438,0.062,0.675,0.094   c0.234,0.043,0.488,0.063,0.736,0.132c0.249,0.073,0.506,0.149,0.771,0.228c0.271,0.067,0.522,0.202,0.792,0.314   c0.266,0.12,0.545,0.234,0.8,0.398c0.261,0.153,0.525,0.315,0.789,0.483c0.249,0.187,0.499,0.38,0.748,0.58   c0.259,0.189,0.472,0.428,0.706,0.648l0.344,0.339l0.313,0.364c0.427,0.483,0.789,1.006,1.135,1.528   c0.171,0.262,0.313,0.536,0.463,0.801c0.154,0.264,0.294,0.53,0.409,0.801c0.121,0.268,0.244,0.529,0.354,0.789   c0.097,0.265,0.19,0.524,0.282,0.776c0.194,0.499,0.305,0.996,0.429,1.442c0.131,0.443,0.188,0.875,0.261,1.243   c0.078,0.37,0.104,0.694,0.133,0.961C89.406,35.139,89.418,35.45,89.418,35.45z"/></g></svg>