<svg xmlns="http://www.w3.org/2000/svg" xmlns:xlink="http://www.w3.org/1999/xlink" version="1.1" x="0px" y="0px" viewBox="0 0 100 125" style="enable-background:new 0 0 100 100;" xml:space="preserve"><path d="M66.2792969,9.9995117h-2.0546875c-1.7890625,0-3.2451172,1.4555664-3.2451172,3.2446289v2.4902344H44.0341797v-2.4902344  c0-1.7890625-1.4550781-3.2446289-3.2441406-3.2446289H38.734375c-1.7890625,0-3.2451172,1.4555664-3.2451172,3.2446289v2.4902344  H18.5449219v-2.4902344c0-1.7890625-1.4560547-3.2446289-3.2451172-3.2446289h-2.0546875  C11.4560547,9.9995117,10,11.4550781,10,13.2441406v73.5112305C10,88.5444336,11.4560547,90,13.2451172,90h2.0546875  c1.7890625,0,3.2451172-1.4555664,3.2451172-3.2446289V25.4570312h16.9443359v61.2983398  C35.4892578,88.5444336,36.9453125,90,38.734375,90h2.0556641c1.7890625,0,3.2441406-1.4555664,3.2441406-3.2446289V25.4570312  h16.9453125v61.2983398C60.9794922,88.5444336,62.4345703,90,64.2236328,90h2.0556641  c1.7890625,0,3.2451172-1.4555664,3.2451172-3.2446289V13.2441406C69.5244141,11.4550781,68.0683594,9.9995117,66.2792969,9.9995117  z M16.5449219,86.7553711C16.5449219,87.4418945,15.9863281,88,15.2998047,88h-2.0546875C12.5585938,88,12,87.4418945,12,86.7553711  V13.2441406c0-0.6865234,0.5585938-1.2446289,1.2451172-1.2446289h2.0546875c0.6865234,0,1.2451172,0.5581055,1.2451172,1.2446289  V86.7553711z M18.5449219,17.734375h7.4726562v5.7226562h-7.4726562V17.734375z M28.0175781,23.4570312V17.734375h7.4716797  v5.7226562H28.0175781z M42.0341797,86.7553711C42.0341797,87.4418945,41.4755859,88,40.7900391,88H38.734375  c-0.6865234,0-1.2451172-0.5581055-1.2451172-1.2446289V13.2441406c0-0.6865234,0.5585938-1.2446289,1.2451172-1.2446289h2.0556641  c0.6855469,0,1.2441406,0.5581055,1.2441406,1.2446289V86.7553711z M44.0341797,17.734375h7.4726562v5.7226562h-7.4726562V17.734375  z M53.5068359,23.4570312V17.734375h7.4726562v5.7226562H53.5068359z M67.5244141,86.7553711  C67.5244141,87.4418945,66.9658203,88,66.2792969,88h-2.0556641c-0.6855469,0-1.2441406-0.5581055-1.2441406-1.2446289V13.2441406  c0-0.6865234,0.5585938-1.2446289,1.2451172-1.2446289h2.0546875c0.6865234,0,1.2451172,0.5581055,1.2451172,1.2446289V86.7553711z"/><path d="M81.9980469,9.9995117c-2.2041016,0-3.9970703,1.7929688-3.9970703,3.9970703v24.4916992h-0.3369141  c-2.0224609,0-3.6669922,1.6450195-3.6669922,3.6674805v44.1762695c0,2.0224609,1.6445312,3.6674805,3.6669922,3.6674805h8.6679688  C88.3544922,89.9995117,90,88.3544922,90,86.3320312V42.1557617c0-2.0224609-1.6455078-3.6674805-3.6679688-3.6674805h-0.3369141  V13.996582C85.9951172,11.7924805,84.2021484,9.9995117,81.9980469,9.9995117z M80.0009766,13.996582  c0-1.1010742,0.8955078-1.9970703,1.9970703-1.9970703s1.9970703,0.8959961,1.9970703,1.9970703v24.4916992h-3.9941406V13.996582z   M88,42.1557617v44.1762695c0,0.9194336-0.7480469,1.6674805-1.6679688,1.6674805h-8.6679688  c-0.9189453,0-1.6669922-0.7480469-1.6669922-1.6674805V42.1557617c0-0.9194336,0.7480469-1.6674805,1.6669922-1.6674805h8.6679688  C87.2519531,40.4882812,88,41.2363281,88,42.1557617z"/></svg>