<svg xmlns="http://www.w3.org/2000/svg" xmlns:xlink="http://www.w3.org/1999/xlink" version="1.1" x="0px" y="0px" viewBox="0 0 100 125" style="enable-background:new 0 0 100 100;" xml:space="preserve"><path d="M22.015,62.137c-6.946,0.875-10.919,1.779-11.033,1.806c-0.538,0.126-0.872,0.663-0.746,1.201  c0.108,0.461,0.519,0.772,0.973,0.772c0.075,0,0.152-0.009,0.228-0.026c0.331-0.076,33.466-7.609,77.602,0.012  c0.544,0.091,1.062-0.271,1.156-0.815s-0.271-1.062-0.815-1.155c-4.118-0.711-8.141-1.29-12.053-1.758  c7.066-1.228,12.462-7.389,12.462-14.801c0-8.292-6.746-15.038-15.038-15.038c-2.376,0-4.616,0.569-6.616,1.554L62.1,23.507  l3.578-11.443h4.787c0.552,0,1-0.447,1-1s-0.448-1-1-1H59.039c-0.552,0-1,0.447-1,1s0.448,1,1,1h4.543l-3.247,10.384H36.143  l2.319-9.564c0.072-0.298,0.004-0.612-0.186-0.854c-0.19-0.241-0.479-0.382-0.786-0.382H26.638c-0.117,0-0.226,0.03-0.33,0.067  c-3.378,0.154-6.081,2.943-6.081,6.359c0,3.515,2.859,6.374,6.374,6.374c0.552,0,1-0.447,1-1s-0.448-1-1-1  c-2.412,0-4.374-1.962-4.374-4.374s1.962-4.374,4.374-4.374c0.091,0,0.173-0.029,0.256-0.052h9.361l-4.892,20.183  c-1.97-0.949-4.169-1.497-6.498-1.497c-8.292,0-15.039,6.746-15.039,15.038C9.79,54.702,15.064,60.815,22.015,62.137z   M74.751,34.334c7.189,0,13.038,5.849,13.038,13.038S81.941,60.41,74.751,60.41c-6.208,0-11.407-4.364-12.714-10.183l9.86-1.424  c0.528,1.047,1.603,1.774,2.854,1.774c1.768,0,3.206-1.438,3.206-3.206s-1.438-3.206-3.206-3.206c-0.207,0-0.408,0.023-0.604,0.061  l-5.004-8.607C70.844,34.804,72.742,34.334,74.751,34.334z M61.713,47.372c0-4.466,2.259-8.412,5.692-10.762l4.998,8.596  c-0.41,0.444-0.695,1-0.803,1.621l-9.843,1.421C61.738,47.957,61.713,47.668,61.713,47.372z M74.751,46.166  c0.665,0,1.206,0.541,1.206,1.206s-0.541,1.206-1.206,1.206c-0.666,0-1.207-0.541-1.207-1.206S74.086,46.166,74.751,46.166z   M66.397,34.876c-4.027,2.701-6.684,7.293-6.684,12.496c0,0.392,0.029,0.778,0.059,1.163l-2.894,0.418  c-0.393-0.976-1.112-1.774-2.018-2.289l6.431-20.569L66.397,34.876z M52.587,49.938c-0.552,0-1,0.447-1,1v2.164  c-0.955-0.395-1.63-1.334-1.63-2.43c0-1.45,1.18-2.63,2.63-2.63s2.63,1.18,2.63,2.63c0,1.096-0.675,2.035-1.63,2.43v-2.164  C53.587,50.385,53.139,49.938,52.587,49.938z M59.71,24.448l-6.763,21.63c-0.121-0.01-0.237-0.036-0.36-0.036  c-0.691,0-1.34,0.162-1.93,0.435L35.146,26.559l0.512-2.111H59.71z M34.545,29.042l14.527,18.653  c-0.685,0.807-1.114,1.838-1.114,2.977c0,2.209,1.557,4.055,3.63,4.514v2.23H50.21c-0.552,0-1,0.447-1,1s0.448,1,1,1h4.753  c0.552,0,1-0.447,1-1s-0.448-1-1-1h-1.376v-2.23c1.99-0.441,3.487-2.167,3.604-4.259l2.858-0.413c1.058,4.952,4.562,9,9.181,10.831  c-15.364-1.302-28.631-0.919-38.611-0.099c5.425-2.273,9.247-7.635,9.247-13.875c0-5.222-2.678-9.826-6.729-12.523L34.545,29.042z   M24.828,34.334c2.171,0,4.214,0.541,6.017,1.483l-0.615,2.536l-4.41,5.987c-0.314-0.103-0.644-0.173-0.992-0.173  c-1.768,0-3.206,1.438-3.206,3.206s1.438,3.206,3.206,3.206s3.206-1.438,3.206-3.206c0-0.692-0.225-1.329-0.599-1.853l4.525-6.143  c0.079-0.106,0.135-0.229,0.167-0.357l0.502-2.07c3.173,2.38,5.239,6.16,5.239,10.423c0,7.189-5.849,13.038-13.038,13.038  S11.79,54.562,11.79,47.372S17.639,34.334,24.828,34.334z M26.034,47.372c0,0.665-0.541,1.206-1.206,1.206s-1.206-0.541-1.206-1.206  s0.541-1.206,1.206-1.206S26.034,46.707,26.034,47.372z"/><path d="M10.237,89.228C10.345,89.688,10.756,90,11.21,90c0.075,0,0.152-0.009,0.228-0.026c0.331-0.076,33.466-7.608,77.602,0.012  c0.544,0.092,1.062-0.271,1.156-0.815s-0.271-1.062-0.815-1.155c-44.56-7.695-78.065-0.065-78.398,0.012  C10.445,88.152,10.111,88.689,10.237,89.228z"/><path d="M11.21,77.958c0.075,0,0.152-0.009,0.228-0.026c0.331-0.076,33.466-7.608,77.602,0.012c0.544,0.089,1.062-0.271,1.156-0.815  c0.094-0.544-0.271-1.062-0.815-1.155c-44.56-7.696-78.065-0.066-78.398,0.012c-0.538,0.126-0.872,0.663-0.746,1.201  C10.345,77.646,10.756,77.958,11.21,77.958z"/></svg>