<svg xmlns="http://www.w3.org/2000/svg" xmlns:xlink="http://www.w3.org/1999/xlink" version="1.1" x="0px" y="0px" viewBox="0 0 52 65" enable-background="new 0 0 52 52" xml:space="preserve"><g><path fill="none" stroke="#000000" stroke-width="2" stroke-miterlimit="10" d="M37,14H15C8.3725586,14,3,19.3725586,3,26   s5.3725586,12,12,12h22c6.6274414,0,12-5.3725586,12-12S43.6274414,14,37,14z"/><rect x="16.9999409" y="18.0000095" fill="none" stroke="#000000" stroke-width="2" stroke-miterlimit="10" width="16" height="16"/><line fill="none" stroke="#000000" stroke-width="2" stroke-miterlimit="10" x1="40.9999428" y1="21.0000095" x2="40.9999428" y2="31.0000095"/><line fill="none" stroke="#000000" stroke-width="2" stroke-miterlimit="10" x1="45.9999428" y1="26.0000095" x2="35.9999428" y2="26.0000095"/><g><line fill="none" stroke="#000000" stroke-width="2" stroke-miterlimit="10" x1="8.9999418" y1="23" x2="10.9999418" y2="23"/><line fill="none" stroke="#000000" stroke-width="2" stroke-miterlimit="10" x1="8.9999418" y1="29" x2="10.9999418" y2="29"/><line fill="none" stroke="#000000" stroke-width="2" stroke-miterlimit="10" x1="8.9999418" y1="23" x2="10.9999418" y2="23"/><line fill="none" stroke="#000000" stroke-width="2" stroke-miterlimit="10" x1="8.9999418" y1="29" x2="10.9999418" y2="29"/></g><g><line fill="none" stroke="#000000" stroke-width="2" stroke-miterlimit="10" x1="12.9999418" y1="25" x2="12.9999418" y2="27"/><line fill="none" stroke="#000000" stroke-width="2" stroke-miterlimit="10" x1="6.9999413" y1="25" x2="6.9999413" y2="27"/><line fill="none" stroke="#000000" stroke-width="2" stroke-miterlimit="10" x1="12.9999418" y1="25" x2="12.9999418" y2="27"/><line fill="none" stroke="#000000" stroke-width="2" stroke-miterlimit="10" x1="6.9999413" y1="25" x2="6.9999413" y2="27"/></g></g></svg>