<svg xmlns="http://www.w3.org/2000/svg" xmlns:xlink="http://www.w3.org/1999/xlink" version="1.1" x="0px" y="0px" viewBox="0 0 100 125" style="enable-background:new 0 0 100 100;" xml:space="preserve"><path d="M15.4160156,74.9042969l24.1435547,2.3427734v3.1455078c0,3.1210938,2.3408203,5.7158203,5.4453125,6.0361328  l34.2021484,3.53125c0.0341797,0.0029297,0.0683594,0.0048828,0.1025391,0.0048828c0.3544922,0,0.6855469-0.1884766,0.8662109-0.5  c9.7724609-16.9150391,9.7636719-38.5908203,9.7587891-39.5c0-5.6141357-1.1928711-10.9747925-3.324707-15.8494873  c-0.0001221-0.0014038,0.0006104-0.0026245,0.0004883-0.0040283c-0.0183105-0.2200928-0.1201172-0.4072266-0.2548828-0.5631714  c-6.2086182-13.6154175-19.8442383-23.2740479-35.640625-23.5764771  c-10.6220703-0.1816406-20.6982422,3.859375-28.4238281,11.4365234C14.4384766,29.1123047,9.9345703,39.8017578,9.9345703,50.734375  v18.1298828C9.9345703,72.0048828,12.2910156,74.6015625,15.4160156,74.9042969z M78.7636719,87.9033203l-33.5537109-3.4648438  c-2.0810547-0.2138672-3.6503906-1.9541016-3.6503906-4.0458984v-2.9862061l40.4873047,3.5282593  C81.1083984,83.3061523,80.0256348,85.6523438,78.7636719,87.9033203z M86.9919434,61.5164185l-40.0065918-4.3084106  c-2.7373047-0.2949219-4.8007812-2.5927734-4.8007812-5.3447266v-8.0458984c0-2.8408203,2.2519531-5.0527344,5.4609375-5.3798828  l37.2866211-3.1796875c1.9299316,4.538147,3.0024414,9.512085,3.0024414,14.7128906  C87.9350586,50.0718994,87.9360352,54.8172607,86.9919434,61.5164185z M11.9345703,50.734375  c0-10.3994141,4.2851562-20.5673828,11.7568359-27.8984375c7.1640625-7.0273438,16.4658203-10.8710938,26.2675781-10.8710938  c0.2382812,0,0.4785156,0.0019531,0.7167969,0.0068359c14.6000977,0.2789917,27.2580566,8.9712524,33.3653564,21.3554077  l-36.5821533,3.1192017c-4.2148438,0.4287109-7.2744141,3.5292969-7.2744141,7.3710938v8.0458984  c0,3.7763672,2.8310547,6.9287109,6.5859375,7.3330078l39.9204102,4.2991333  c-0.7530518,4.6815796-1.9648438,10.1057739-3.9090576,15.4959106l-44.5123291-3.8790283  c-0.0013428-0.0001221-0.0025635,0.0005493-0.0039062,0.0004272l-22.65625-2.1986694  c-2.0947266-0.203125-3.6748047-1.9443359-3.6748047-4.0498047V50.734375z"/><path d="M59.7978516,47.3828125l-1.59375-1.59375c-0.390625-0.390625-1.0234375-0.390625-1.4140625,0  s-0.390625,1.0234375,0,1.4140625l1.59375,1.59375c0.1953125,0.1953125,0.4511719,0.2929688,0.7070312,0.2929688  s0.5117188-0.0976562,0.7070312-0.2929688C60.1884766,48.40625,60.1884766,47.7734375,59.7978516,47.3828125z"/><path d="M53.2041016,47.3828125c-0.390625-0.390625-1.0234375-0.390625-1.4140625,0s-0.390625,1.0234375,0,1.4140625l5,5  c0.1953125,0.1953125,0.4511719,0.2929688,0.7070312,0.2929688s0.5117188-0.0976562,0.7070312-0.2929688  c0.390625-0.390625,0.390625-1.0234375,0-1.4140625L53.2041016,47.3828125z"/><path d="M25.9472656,52.4335938c3.2744141,0,5.9375-2.6630859,5.9375-5.9375s-2.6630859-5.9375-5.9375-5.9375  s-5.9375,2.6630859-5.9375,5.9375S22.6728516,52.4335938,25.9472656,52.4335938z M25.9472656,42.5585938  c2.1708984,0,3.9375,1.7666016,3.9375,3.9375s-1.7666016,3.9375-3.9375,3.9375s-3.9375-1.7666016-3.9375-3.9375  S23.7763672,42.5585938,25.9472656,42.5585938z"/></svg>