<svg xmlns="http://www.w3.org/2000/svg" xmlns:xlink="http://www.w3.org/1999/xlink" version="1.1" x="0px" y="0px" viewBox="0 0 100 125" style="enable-background:new 0 0 100 100;" xml:space="preserve"><style type="text/css">
	.st0{fill:none;stroke:#000000;stroke-width:2;stroke-linecap:round;stroke-linejoin:round;stroke-miterlimit:10;}
	.st1{fill:none;stroke:#000000;stroke-width:2;stroke-linecap:round;stroke-linejoin:round;}
	.st2{fill:none;stroke:#000000;stroke-width:2;stroke-linecap:round;stroke-linejoin:round;stroke-dasharray:4.1329,4.1329;}
</style><path d="M51.7,11.8c-10.5,0-24.1,18.5-24.1,38.2c0,20.7,11.1,38.2,24.1,38.2S75.8,70.7,75.8,50c0-9.1-2.9-18.7-8.1-26.5  C62.9,16.2,56.9,11.8,51.7,11.8z M66.9,25.9H36.6c1.1-1.7,2.2-3.3,3.4-4.7h23.5c0.9,1.1,1.8,2.2,2.6,3.5  C66.4,25,66.6,25.5,66.9,25.9z M51.7,13.8c3.1,0,6.6,2,10,5.4H41.8C45.2,15.8,48.8,13.8,51.7,13.8z M63.8,79.9H39.6c0,0,0,0,0,0  c-1.2-1.4-2.4-3-3.5-4.7h31.1C66.2,77,65.1,78.5,63.8,79.9z M41.6,81.9h20.2c-3.1,2.7-6.5,4.3-10.1,4.3S44.7,84.6,41.6,81.9z   M68.4,73.2H35c-3.4-6.4-5.5-14.6-5.5-23.2c0-8.3,2.4-16,5.8-22.1H68c0,0,0,0,0.1,0c3.7,6.8,5.8,14.6,5.8,22.1  C73.8,58.7,71.8,66.8,68.4,73.2z"/><path d="M57.1,39c0.6,0,1-0.4,1-1s-0.4-1-1-1h-4.4v-4.7c0-0.6-0.4-1-1-1s-1,0.4-1,1V37h-4.4c-0.6,0-1,0.4-1,1s0.4,1,1,1h4.4v4h-4.4  c-0.6,0-1,0.4-1,1s0.4,1,1,1h4.4v4h-4.4c-0.6,0-1,0.4-1,1s0.4,1,1,1h4.4v4h-4.4c-0.6,0-1,0.4-1,1s0.4,1,1,1h4.4v4h-4.4  c-0.6,0-1,0.4-1,1s0.4,1,1,1h4.4v4.7c0,0.6,0.4,1,1,1s1-0.4,1-1V63h4.4c0.6,0,1-0.4,1-1s-0.4-1-1-1h-4.4v-4h4.4c0.6,0,1-0.4,1-1  s-0.4-1-1-1h-4.4v-4h4.4c0.6,0,1-0.4,1-1s-0.4-1-1-1h-4.4v-4h4.4c0.6,0,1-0.4,1-1s-0.4-1-1-1h-4.4v-4H57.1z"/></svg>