<svg xmlns="http://www.w3.org/2000/svg" xmlns:xlink="http://www.w3.org/1999/xlink" version="1.1" x="0px" y="0px" viewBox="0 0 100 125" style="enable-background:new 0 0 100 100;" xml:space="preserve"><path d="M40.5595703,61.9936523c0.1337891,0.4121094,0.5180664,0.690918,0.9511719,0.690918h16.9785156  c0.4331055,0,0.8173828-0.2788086,0.9511719-0.690918L64.6875,45.8461914  c0.1337891-0.4121094-0.0126953-0.8632812-0.3632812-1.1181641l-13.7363281-9.9799805  c-0.3505859-0.2548828-0.8251953-0.2548828-1.1757812,0l-13.7363281,9.9799805  c-0.3505859,0.2548828-0.4970703,0.7060547-0.3632812,1.1181641L40.5595703,61.9936523z M50,36.7929688l12.5605469,9.1259766  l-4.7978516,14.765625H42.2373047l-4.7978516-14.765625L50,36.7929688z"/><path d="M10.0095215,50.3760376c0.0787354,8.4630737,2.8005371,16.3013306,7.3759766,22.7384644  c0.0255127,0.0526733,0.0368652,0.109436,0.0725098,0.1584473c0.0323486,0.0444946,0.0786743,0.0695801,0.1165161,0.1071167  c4.9692383,6.8724365,12.0602417,12.1113892,20.3105469,14.739502c0.0137939,0.005188,0.0231323,0.0164795,0.0372925,0.0210571  c0.0155029,0.0050049,0.031189,0.0031738,0.0467529,0.0074463C41.7681885,89.348877,45.809082,90,50,90  c4.1898804,0,8.2299194-0.6507568,12.0281982-1.8510132c0.0164795-0.0044556,0.03302-0.0025635,0.0494385-0.0078735  c0.0149536-0.0048828,0.0248413-0.0167847,0.0394287-0.0222778c8.2503662-2.6286621,15.3412476-7.8682251,20.3101807-14.741272  c0.0369873-0.0369873,0.0825195-0.0614014,0.1142578-0.1051025c0.0349121-0.0480347,0.0458984-0.1036987,0.071106-0.1552734  c4.5761719-6.4368896,7.2985229-14.2752075,7.3778076-22.7384033c0.0022583-0.0274048,0.0159302-0.0509644,0.0159302-0.0789795  c0-0.0217896-0.0110474-0.039917-0.0123901-0.0613403C89.9944458,50.1586304,90,50.0799561,90,50  c0-8.8338013-2.8839111-17.0037231-7.7520752-23.6295776c-0.0221558-0.0419922-0.0297241-0.0881958-0.0584717-0.1277466  c-0.026001-0.0357666-0.0640869-0.0548096-0.093689-0.0860596c-4.8256836-6.479126-11.5673218-11.4440918-19.3747559-14.0707397  c-0.0265503-0.0112305-0.0456543-0.0323486-0.0735474-0.0414429c-0.0244751-0.0079346-0.0489502-0.0024414-0.0735474-0.0084229  C58.6169434,10.7219849,54.392395,10,50,10s-8.6170044,0.7220459-12.5739746,2.0360718  c-0.0245972,0.0059204-0.0489502,0.0004883-0.0734863,0.0083618c-0.0278931,0.0090942-0.0469971,0.0302124-0.0735474,0.0414429  c-7.8070068,2.6265259-14.5482788,7.5910645-19.3739624,14.0696411c-0.0299072,0.0314331-0.0682983,0.0506592-0.0944824,0.0866699  c-0.0289917,0.039917-0.0367432,0.0866089-0.059021,0.1290283C12.883728,32.9968872,10,41.1665649,10,50  c0,0.0806885,0.0056152,0.1600342,0.0061035,0.2406006c-0.0012817,0.0206909-0.0119629,0.038208-0.0119629,0.0592041  C9.9941406,50.3268433,10.0074463,50.3495483,10.0095215,50.3760376z M18.8693848,28.2477417l8.6516113,6.2859497  l-4.7973633,14.7661133H12.0177612C12.1602783,41.4817505,14.6724243,34.236084,18.8693848,28.2477417z M19.6896973,72.8876343  l8.6550293-6.2885132l12.5600586,9.1259766l-3.3092041,10.1848755C30.409668,83.4204712,24.194519,78.838623,19.6896973,72.8876343z   M62.4042969,85.9100342l-3.309082-10.1849365l12.5600586-9.1259766l8.6550903,6.2884521  C75.805542,78.838623,69.590271,83.4205933,62.4042969,85.9100342z M87.9822388,49.2998047H77.2763672l-4.7973633-14.7661133  l8.6518555-6.2856445C85.3277588,34.2363281,87.8397217,41.4818726,87.9822388,49.2998047z M61.0739746,13.6505127  l-3.3112793,10.1917725H42.2373047l-3.3112793-10.1917725C42.4316406,12.5803833,46.1488647,12,50,12  S57.5683594,12.5803833,61.0739746,13.6505127z M37.0281372,14.2824097l3.5314331,10.8689575  c0.1337891,0.4121094,0.5180664,0.690918,0.9511719,0.690918h16.9785156c0.4331055,0,0.8173828-0.2788086,0.9511719-0.690918  l3.5314331-10.8689575c6.7559814,2.4613037,12.6157227,6.7929077,16.9678345,12.3586426l-9.2243652,6.7017212  c-0.3505859,0.2548828-0.4970703,0.7060547-0.3632812,1.1181641l5.246582,16.1479492  c0.1337891,0.4121094,0.5180664,0.690918,0.9511719,0.690918H87.96698  c-0.2496338,7.3760986-2.6015015,14.2278442-6.4887085,19.9639282l-9.2351074-6.7095337  c-0.3505859-0.2548828-0.8251953-0.2548828-1.1757812,0L57.331543,74.5341797  c-0.3505859,0.2548828-0.4970703,0.7060547-0.3632812,1.1181641l3.5289307,10.8612671C57.1605835,87.4744263,53.6415405,88,50,88  c-3.6416016,0-7.1607666-0.5255737-10.4973755-1.4863892l3.5291138-10.8612671  c0.1337891-0.4121094-0.0126953-0.8632812-0.3632812-1.1181641l-13.7358398-9.9799805  c-0.3505859-0.2548828-0.8251953-0.2548828-1.1757812,0l-9.2350464,6.7095947  c-3.8872681-5.736084-6.2391357-12.5878906-6.4887695-19.9639893h11.4171753c0.4331055,0,0.8173828-0.2788086,0.9511719-0.690918  l5.246582-16.1479492c0.1337891-0.4121094-0.0126953-0.8632812-0.3632812-1.1181641l-9.2241211-6.7020264  C24.4125977,21.0751953,30.2722778,16.7437134,37.0281372,14.2824097z"/></svg>