<svg xmlns="http://www.w3.org/2000/svg" xmlns:xlink="http://www.w3.org/1999/xlink" version="1.1" x="0px" y="0px" viewBox="0 0 100 125" style="enable-background:new 0 0 100 100;" xml:space="preserve"><style type="text/css">
	.st0{fill:none;stroke:#000000;stroke-width:2;stroke-linecap:round;stroke-linejoin:round;stroke-miterlimit:10;}
	.st1{fill:none;stroke:#000000;stroke-width:2;stroke-linecap:round;stroke-linejoin:round;}
	.st2{fill:none;stroke:#000000;stroke-width:2;stroke-linecap:round;stroke-linejoin:round;stroke-dasharray:4.1329,4.1329;}
</style><path d="M51.2,20.4c-8.1,0-15.8,3.4-21.3,9.4c-4.9,5.3-7.5,12.2-7.5,19.4s2.7,14.1,7.5,19.4c0,0,0,0,0,0c5.5,6,13.2,9.4,21.3,9.4  c15.9,0,28.8-12.9,28.8-28.8S67.1,20.4,51.2,20.4z M30.7,32c4.1,4.8,6.3,10.9,6.3,17.2c0,6.3-2.2,12.4-6.3,17.2  c-4.1-4.8-6.3-10.9-6.3-17.2C24.4,42.9,26.6,36.8,30.7,32z M32.1,68c4.5-5.2,6.9-11.8,6.9-18.7s-2.5-13.5-6.9-18.7  c5-5.1,12-8.1,19.2-8.1c7.4,0,14.1,3,18.9,7.8c-4.6,5.3-7.2,12-7.2,19c0,7,2.5,13.7,7.2,19c-4.9,4.8-11.5,7.8-18.9,7.8  C44,76.1,37.1,73.1,32.1,68z M71.5,66.8C67.3,61.9,65,55.7,65,49.2c0-6.5,2.3-12.7,6.5-17.5c4.1,4.7,6.5,10.8,6.5,17.5  C78.1,55.9,75.6,62.1,71.5,66.8z"/></svg>